<?xml version="1.0" encoding="UTF-8"?>
<svg width="100pt" height="100pt" version="1.1" viewBox="0 0 100 100" xmlns="http://www.w3.org/2000/svg">
 <path d="m93.398 46.5c-0.69922-1.6992-2.3984-3-4.3984-3h-68.102l16.699-18.801c1.8008-2 1.6016-5-0.39844-6.8008-2-1.8008-5-1.6016-6.8008 0.39844l-23.797 26.902c-0.69922 0.69922-1 1.6016-1.1992 2.6016v0.19922 1.1992c0 0.19922 0.10156 0.39844 0.19922 0.60156 0.10156 0.19922 0.10156 0.5 0.19922 0.69922 0.10156 0.30078 0.30078 0.5 0.5 0.80078 0.10156 0.10156 0.19922 0.30078 0.30078 0.39844v0.10156l23.801 26.801c1 1.1016 2.3008 1.6016 3.6016 1.6016 1.1016 0 2.3008-0.39844 3.1992-1.1992 2-1.8008 2.1992-4.8008 0.39844-6.8008l-16.703-19.004h68.102c2.6992 0 4.8008-2.1992 4.8008-4.8008 0-0.69922-0.10156-1.2969-0.40234-1.8984z"/>
</svg>
