<?xml version="1.0" encoding="UTF-8"?>
<svg width="86px" height="21px" viewBox="0 0 86 21" version="1.1" xmlns="http://www.w3.org/2000/svg" xmlns:xlink="http://www.w3.org/1999/xlink">
    <!-- Generator: Sketch 54.1 (76490) - https://sketchapp.com -->
    <title>softium</title>
    <desc>Created with Sketch.</desc>
    <g id="news-page" stroke="none" stroke-width="1" fill="none" fill-rule="evenodd">
        <g transform="translate(-159.000000, -77.000000)" fill="#388EFC" fill-rule="nonzero" id="softium">
            <path d="M163.892,97.252 C163.238663,97.252 162.53867,97.1866673 161.792,97.056 C161.04533,96.9253327 160.38267,96.7573344 159.804,96.552 C159.673333,96.5146665 159.575334,96.4680003 159.51,96.412 C159.444666,96.3559997 159.412,96.2720006 159.412,96.16 C159.412,96.0666662 159.426,95.9593339 159.454,95.838 C159.482,95.7166661 159.524,95.5440011 159.58,95.32 L159.72,94.816 C159.794667,94.5546654 159.915999,94.424 160.084,94.424 C160.196001,94.424 160.317333,94.4519997 160.448,94.508 C160.578667,94.5640003 160.793332,94.6386662 161.092,94.732 C161.932004,94.9933346 162.883995,95.124 163.948,95.124 C164.844004,95.124 165.492665,94.9653349 165.894,94.648 C166.295335,94.3306651 166.496,93.8453366 166.496,93.192 L166.496,93.052 C166.496,92.3986634 166.337335,91.9460013 166.02,91.694 C165.702665,91.4419987 165.19867,91.2413341 164.508,91.092 L163.192,90.812 C162.482663,90.6626659 161.894669,90.490001 161.428,90.294 C160.961331,90.097999 160.597335,89.8553348 160.336,89.566 C160.074665,89.2766652 159.892667,88.9266687 159.79,88.516 C159.687333,88.1053313 159.636,87.6106696 159.636,87.032 L159.636,86.836 C159.636,85.5293268 160.018663,84.5680031 160.784,83.952 C161.549337,83.3359969 162.734659,83.028 164.34,83.028 C165.049337,83.028 165.702664,83.0699996 166.3,83.154 C166.897336,83.2380004 167.429331,83.3546659 167.896,83.504 C168.045334,83.5413335 168.138666,83.5879997 168.176,83.644 C168.213334,83.7000003 168.232,83.7746662 168.232,83.868 C168.232,83.942667 168.213334,84.0453327 168.176,84.176 C168.138666,84.3066673 168.101334,84.4746656 168.064,84.68 L167.924,85.212 C167.849333,85.4733346 167.737334,85.604 167.588,85.604 C167.513333,85.604 167.424667,85.5946668 167.322,85.576 C167.219333,85.5573332 167.121334,85.5293335 167.028,85.492 C166.710665,85.3986662 166.318669,85.3240003 165.852,85.268 C165.385331,85.2119997 164.937335,85.184 164.508,85.184 C163.555995,85.184 162.907335,85.3099987 162.562,85.562 C162.216665,85.8140013 162.044,86.2386637 162.044,86.836 L162.044,86.976 C162.044,87.2186679 162.076666,87.4286658 162.142,87.606 C162.207334,87.7833342 162.319333,87.9373327 162.478,88.068 C162.636667,88.1986673 162.851332,88.3153328 163.122,88.418 C163.392668,88.5206672 163.733331,88.6186662 164.144,88.712 L165.432,88.992 C166.682673,89.2533346 167.573997,89.6733304 168.106,90.252 C168.638003,90.8306696 168.904,91.7266606 168.904,92.94 L168.904,93.164 C168.904,94.5080067 168.484004,95.5253299 167.644,96.216 C166.803996,96.9066701 165.553342,97.252 163.892,97.252 Z M182.456,90.616 C182.456,91.8480062 182.358001,92.8886624 182.162,93.738 C181.965999,94.5873376 181.597336,95.282664 181.056,95.824 C180.103995,96.7760048 178.685343,97.252 176.8,97.252 C174.914657,97.252 173.496005,96.7760048 172.544,95.824 C172.002664,95.282664 171.634001,94.5873376 171.438,93.738 C171.241999,92.8886624 171.144,91.8480062 171.144,90.616 L171.144,89.664 C171.144,88.4319938 171.241999,87.3913376 171.438,86.542 C171.634001,85.6926624 172.002664,84.997336 172.544,84.456 C173.496005,83.5039952 174.914657,83.028 176.8,83.028 C178.685343,83.028 180.103995,83.5039952 181.056,84.456 C181.597336,84.997336 181.965999,85.6926624 182.162,86.542 C182.358001,87.3913376 182.456,88.4319938 182.456,89.664 L182.456,90.616 Z M179.824,89.86 C179.824,88.9453288 179.786667,88.2266693 179.712,87.704 C179.637333,87.1813307 179.525334,86.7520017 179.376,86.416 C179.170666,85.949331 178.853335,85.6133344 178.424,85.408 C177.994665,85.2026656 177.453337,85.1 176.8,85.1 C176.146663,85.1 175.605335,85.2026656 175.176,85.408 C174.746665,85.6133344 174.429334,85.949331 174.224,86.416 C174.074666,86.7520017 173.962667,87.1813307 173.888,87.704 C173.813333,88.2266693 173.776,88.9453288 173.776,89.86 L173.776,90.42 C173.776,91.3346712 173.813333,92.0533307 173.888,92.576 C173.962667,93.0986693 174.074666,93.5279983 174.224,93.864 C174.429334,94.330669 174.746665,94.6666656 175.176,94.872 C175.605335,95.0773344 176.146663,95.18 176.8,95.18 C177.453337,95.18 177.994665,95.0773344 178.424,94.872 C178.853335,94.6666656 179.170666,94.330669 179.376,93.864 C179.525334,93.5279983 179.637333,93.0986693 179.712,92.576 C179.786667,92.0533307 179.824,91.3346712 179.824,90.42 L179.824,89.86 Z M188.7,96.496 C188.7,96.7013344 188.658,96.8366663 188.574,96.902 C188.49,96.9673337 188.345334,97 188.14,97 L186.684,97 C186.478666,97 186.334,96.9673337 186.25,96.902 C186.166,96.8366663 186.124,96.7013344 186.124,96.496 L186.124,85.492 L184.5,85.492 C184.313332,85.492 184.196667,85.454667 184.15,85.38 C184.103333,85.305333 184.08,85.1933341 184.08,85.044 L184.08,84.148 C184.08,83.8866654 184.219999,83.7280003 184.5,83.672 L186.124,83.364 L186.124,82.384 C186.124,81.5813293 186.198666,80.909336 186.348,80.368 C186.497334,79.826664 186.749332,79.3693352 187.104,78.996 C187.458668,78.6226648 187.929997,78.3286677 188.518,78.114 C189.106003,77.8993323 189.810663,77.792 190.632,77.792 C191.173336,77.792 191.653998,77.8199997 192.074,77.876 C192.494002,77.9320003 192.834665,77.997333 193.096,78.072 C193.338668,78.146667 193.46,78.2586659 193.46,78.408 C193.46,78.5760008 193.413334,78.9213307 193.32,79.444 L193.264,79.78 C193.226666,79.9480008 193.166,80.0506665 193.082,80.088 C192.998,80.1253335 192.825335,80.1253335 192.564,80.088 C192.302665,80.0506665 192.032001,80.0180001 191.752,79.99 C191.471999,79.9619999 191.192001,79.948 190.912,79.948 C190.22133,79.948 189.698668,80.0879986 189.344,80.368 C189.101332,80.5546676 188.933334,80.8113317 188.84,81.138 C188.746666,81.4646683 188.7,81.9173304 188.7,82.496 L188.7,83.28 L191.5,83.28 C191.817335,83.28 191.976,83.4293318 191.976,83.728 L191.976,85.072 C191.976,85.2213341 191.948,85.3286663 191.892,85.394 C191.836,85.4593337 191.705334,85.492 191.5,85.492 L188.7,85.492 L188.7,96.496 Z M199.816,97 C198.919996,97 198.210669,96.9113342 197.688,96.734 C197.165331,96.5566658 196.754668,96.3093349 196.456,95.992 C196.138665,95.6373316 195.919334,95.1986693 195.798,94.676 C195.676666,94.1533307 195.616,93.4533377 195.616,92.576 L195.616,85.492 L193.936,85.492 C193.786666,85.492 193.679334,85.4640003 193.614,85.408 C193.548666,85.3519997 193.516,85.2400008 193.516,85.072 L193.516,84.176 C193.516,83.9893324 193.539333,83.8726669 193.586,83.826 C193.632667,83.7793331 193.730666,83.7373335 193.88,83.7 L195.616,83.364 L195.616,80.312 C195.616,79.9573316 195.802665,79.78 196.176,79.78 L197.66,79.78 C198.014668,79.78 198.192,79.9573316 198.192,80.312 L198.192,83.28 L201.216,83.28 C201.514668,83.28 201.664,83.4479983 201.664,83.784 L201.664,84.988 C201.664,85.3240017 201.514668,85.492 201.216,85.492 L198.192,85.492 L198.192,92.38 C198.192,92.921336 198.210666,93.3226654 198.248,93.584 C198.285334,93.8453346 198.378666,94.0786656 198.528,94.284 C198.677334,94.5080011 198.877999,94.6526663 199.13,94.718 C199.382001,94.7833337 199.769331,94.816 200.292,94.816 L201.496,94.816 C201.682668,94.816 201.813333,94.8486663 201.888,94.914 C201.962667,94.9793337 202,95.1239989 202,95.348 L202,96.496 C202,96.6826676 201.967334,96.813333 201.902,96.888 C201.836666,96.962667 201.701334,97 201.496,97 L199.816,97 Z M207.236,96.496 C207.236,96.7013344 207.194,96.8366663 207.11,96.902 C207.026,96.9673337 206.881334,97 206.676,97 L205.22,97 C205.014666,97 204.87,96.9673337 204.786,96.902 C204.702,96.8366663 204.66,96.7013344 204.66,96.496 L204.66,83.784 C204.66,83.5786656 204.702,83.4433337 204.786,83.378 C204.87,83.3126663 205.014666,83.28 205.22,83.28 L206.676,83.28 C206.881334,83.28 207.026,83.3126663 207.11,83.378 C207.194,83.4433337 207.236,83.5786656 207.236,83.784 L207.236,96.496 Z M204.268,79.668 C204.268,79.0893304 204.426665,78.6740013 204.744,78.422 C205.061335,78.1699987 205.443998,78.044 205.892,78.044 L206.032,78.044 C206.498669,78.044 206.881332,78.1699987 207.18,78.422 C207.478668,78.6740013 207.628,79.0893304 207.628,79.668 L207.628,79.864 C207.628,80.4426696 207.478668,80.8579987 207.18,81.11 C206.881332,81.3620013 206.498669,81.488 206.032,81.488 L205.892,81.488 C205.443998,81.488 205.061335,81.3620013 204.744,81.11 C204.426665,80.8579987 204.268,80.4426696 204.268,79.864 L204.268,79.668 Z M218.968,83.784 C218.968,83.5786656 219.01,83.4433337 219.094,83.378 C219.178,83.3126663 219.322666,83.28 219.528,83.28 L220.984,83.28 C221.189334,83.28 221.334,83.317333 221.418,83.392 C221.502,83.466667 221.544,83.6066656 221.544,83.812 L221.544,92.884 C221.544,94.4706746 221.068005,95.6093299 220.116,96.3 C219.686665,96.6360017 219.16867,96.8786659 218.562,97.028 C217.95533,97.1773341 217.176005,97.252 216.224,97.252 C215.271995,97.252 214.49267,97.1773341 213.886,97.028 C213.27933,96.8786659 212.752002,96.6360017 212.304,96.3 C211.351995,95.6093299 210.876,94.4706746 210.876,92.884 L210.876,83.784 C210.876,83.5786656 210.918,83.4433337 211.002,83.378 C211.086,83.3126663 211.230666,83.28 211.436,83.28 L212.892,83.28 C213.097334,83.28 213.242,83.3126663 213.326,83.378 C213.41,83.4433337 213.452,83.5786656 213.452,83.784 L213.452,92.464 C213.452,92.9866693 213.498666,93.4113317 213.592,93.738 C213.685334,94.0646683 213.853332,94.3306656 214.096,94.536 C214.544002,94.9093352 215.253328,95.096 216.224,95.096 C217.194672,95.096 217.913331,94.8906687 218.38,94.48 C218.604001,94.2746656 218.758,94.0180015 218.842,93.71 C218.926,93.4019985 218.968,92.9866693 218.968,92.464 L218.968,83.784 Z M244.056,96.496 C244.056,96.7013344 244.014,96.8366663 243.93,96.902 C243.846,96.9673337 243.701334,97 243.496,97 L242.04,97 C241.834666,97 241.69,96.9673337 241.606,96.902 C241.522,96.8366663 241.48,96.7013344 241.48,96.496 L241.48,88.46 C241.48,87.2466606 241.279335,86.3926691 240.878,85.898 C240.476665,85.4033309 239.781338,85.156 238.792,85.156 C238.10133,85.156 237.499336,85.2819987 236.986,85.534 C236.472664,85.7860013 236.057335,86.1266645 235.74,86.556 C235.777334,86.8733349 235.805333,87.1859985 235.824,87.494 C235.842667,87.8020015 235.852,88.1706645 235.852,88.6 L235.852,96.496 C235.852,96.7013344 235.81,96.8366663 235.726,96.902 C235.642,96.9673337 235.497334,97 235.292,97 L233.836,97 C233.630666,97 233.486,96.9673337 233.402,96.902 C233.318,96.8366663 233.276,96.7013344 233.276,96.496 L233.276,88.46 C233.276,87.2279938 233.047336,86.3693358 232.59,85.884 C232.132664,85.3986642 231.390672,85.156 230.364,85.156 C229.467996,85.156 228.777336,85.3659979 228.292,85.786 C227.806664,86.2060021 227.564,86.9666612 227.564,88.068 L227.564,96.496 C227.564,96.7013344 227.522,96.8366663 227.438,96.902 C227.354,96.9673337 227.209334,97 227.004,97 L225.548,97 C225.342666,97 225.198,96.9673337 225.114,96.902 C225.03,96.8366663 224.988,96.7013344 224.988,96.496 L224.988,83.728 C224.988,83.4293318 225.137332,83.28 225.436,83.28 L226.444,83.28 C226.612001,83.28 226.728666,83.3079997 226.794,83.364 C226.859334,83.4200003 226.910666,83.5226659 226.948,83.672 L227.088,84.596 L227.144,84.596 C227.517335,84.129331 228.016664,83.7513348 228.642,83.462 C229.267336,83.1726652 230.027996,83.028 230.924,83.028 C231.876005,83.028 232.692663,83.1913317 233.374,83.518 C234.055337,83.8446683 234.582665,84.2879972 234.956,84.848 L234.984,84.848 C235.581336,84.2133302 236.248663,83.7513348 236.986,83.462 C237.723337,83.1726652 238.521329,83.028 239.38,83.028 C241.060008,83.028 242.25933,83.457329 242.978,84.316 C243.69667,85.174671 244.056,86.5186575 244.056,88.348 L244.056,96.496 Z"></path>
        </g>
    </g>
</svg>